<?xml version="1.0" encoding="utf-8"?>
<!-- Generator: Adobe Illustrator 23.0.1, SVG Export Plug-In . SVG Version: 6.00 Build 0)  -->
<svg version="1.1" id="Layer_2" xmlns="http://www.w3.org/2000/svg" xmlns:xlink="http://www.w3.org/1999/xlink" x="0px" y="0px"
	 viewBox="0 0 11.14 11.99" style="enable-background:new 0 0 11.14 11.99;" xml:space="preserve">
<polygon points="0,0 0,0.85 0,1.34 0,10.63 0,11.98 0,11.99 1.35,11.99 1.35,11.98 11.14,11.98 11.14,11.93 11.14,10.63 11.14,4.78 
	9.8,4.78 9.8,10.63 1.35,10.63 1.35,1.34 9.8,1.34 9.8,2.16 5.26,6.69 4.07,5.49 3.12,6.44 4.31,7.64 4.31,7.64 5.26,8.59 
	5.26,8.59 5.27,8.6 6.22,7.64 6.21,7.64 11.05,2.81 11.14,2.81 11.14,1.34 11.14,0.22 11.14,0 "/>
</svg>
